<?xml version="1.0" encoding="UTF-8" standalone="no"?>
<svg
   viewBox="0 0 448 512"
   version="1.1"
   id="svg4"
   sodipodi:docname="favicon.svg"
   inkscape:export-filename="favicon.png"
   inkscape:export-xdpi="12"
   inkscape:export-ydpi="12"
   inkscape:version="1.2.2 (732a01da63, 2022-12-09)"
   xmlns:inkscape="http://www.inkscape.org/namespaces/inkscape"
   xmlns:sodipodi="http://sodipodi.sourceforge.net/DTD/sodipodi-0.dtd"
   xmlns:xlink="http://www.w3.org/1999/xlink"
   xmlns="http://www.w3.org/2000/svg"
   xmlns:svg="http://www.w3.org/2000/svg">
  <defs
     id="defs8">
    <linearGradient
       inkscape:collect="always"
       id="linearGradient1433">
      <stop
         style="stop-color:#ffffff;stop-opacity:1;"
         offset="0.5"
         id="stop1429" />
      <stop
         style="stop-color:#000000;stop-opacity:1;"
         offset="0.5"
         id="stop1431" />
    </linearGradient>
    <linearGradient
       inkscape:collect="always"
       id="linearGradient1361">
      <stop
         style="stop-color:#ffffff;stop-opacity:1;"
         offset="0.5"
         id="stop1357" />
      <stop
         style="stop-color:#000000;stop-opacity:1;"
         offset="0.5"
         id="stop1359" />
    </linearGradient>
    <linearGradient
       inkscape:collect="always"
       id="linearGradient1330">
      <stop
         style="stop-color:#000000;stop-opacity:1;"
         offset="0.49882352"
         id="stop1326" />
      <stop
         style="stop-color:#ffffff;stop-opacity:1;"
         offset="0.49882352"
         id="stop1328" />
    </linearGradient>
    <clipPath
       clipPathUnits="userSpaceOnUse"
       id="clipPath483">
      <use
         x="0"
         y="0"
         xlink:href="#g479"
         id="use485" />
    </clipPath>
    <linearGradient
       inkscape:collect="always"
       xlink:href="#linearGradient1330"
       id="linearGradient1332"
       x1="1.5022074"
       y1="510.01614"
       x2="451.74469"
       y2="510.01614"
       gradientUnits="userSpaceOnUse" />
    <linearGradient
       inkscape:collect="always"
       xlink:href="#linearGradient1361"
       id="linearGradient1363"
       x1="1.5022074"
       y1="510.01614"
       x2="451.74469"
       y2="510.01614"
       gradientUnits="userSpaceOnUse" />
    <linearGradient
       inkscape:collect="always"
       xlink:href="#linearGradient1433"
       id="linearGradient1435"
       x1="1.5022074"
       y1="510.01614"
       x2="451.74469"
       y2="510.01614"
       gradientUnits="userSpaceOnUse" />
  </defs>
  <sodipodi:namedview
     id="namedview6"
     pagecolor="#ffffff"
     bordercolor="#999999"
     borderopacity="1"
     inkscape:showpageshadow="0"
     inkscape:pageopacity="0"
     inkscape:pagecheckerboard="0"
     inkscape:deskcolor="#d1d1d1"
     showgrid="false"
     inkscape:zoom="0.78515625"
     inkscape:cx="143.28358"
     inkscape:cy="271.9204"
     inkscape:window-width="1920"
     inkscape:window-height="991"
     inkscape:window-x="-9"
     inkscape:window-y="-9"
     inkscape:window-maximized="1"
     inkscape:current-layer="svg4" />
  <!--! Font Awesome Pro 6.4.0 by @fontawesome - https://fontawesome.com License - https://fontawesome.com/license (Commercial License) Copyright 2023 Fonticons, Inc. -->
  <path
     d="M 96,48 82.7,61.3 C 70.7,73.3 64,89.5 64,106.5 v 132.4 c 0,10.7 5.3,20.7 14.2,26.6 l 10.6,7 c 14.3,9.6 32.7,10.7 48.1,3 l 3.2,-1.6 c 2.6,-1.3 5,-2.8 7.3,-4.5 l 49.4,-37 c 6.6,-5 15.7,-5 22.3,0 10.2,7.7 9.9,23.1 -0.7,30.3 L 90.4,350 C 73.9,361.3 64,380 64,400 H 384 L 412.9,241 C 415,229.7 416,218.2 416,206.7 V 192 C 416,86 330,0 224,0 H 83.8 C 72.9,0 64,8.9 64,19.8 c 0,7.5 4.2,14.3 10.9,17.7 z M 22.6,473.4 c -4.2,4.2 -6.6,10 -6.6,16 0,12.5 10.1,22.6 22.6,22.6 h 370.8 c 12.5,0 22.6,-10.1 22.6,-22.6 0,-6 -2.4,-11.8 -6.6,-16 L 384,432 H 64 Z"
     id="path2"
     sodipodi:nodetypes="csssccssccccccccsssssccssssssccs"
     style="fill:#ffffff;stroke:#000000;stroke-opacity:1" />
  <path
     style="fill:#ffffff;stroke-width:0.636816;stroke:#000000;stroke-opacity:1"
     d="m 64.636816,396.14114 c 0,-9.16999 4.565157,-21.97564 11.139916,-31.24839 5.831254,-8.22415 9.673173,-11.0629 77.994378,-57.62907 36.22853,-24.69254 66.76389,-45.78534 67.85636,-46.87289 5.28255,-5.25878 6.69555,-14.4329 3.29385,-21.38573 -4.06113,-8.30066 -13.38329,-12.40399 -22.29459,-9.8134 -3.02906,0.88057 -8.06742,4.38339 -31.4839,21.88854 -29.85296,22.31678 -35.09238,25.56305 -45.05328,27.91438 -6.98604,1.64909 -16.55726,1.38069 -23.44906,-0.65759 -7.089361,-2.09669 -9.019334,-3.09353 -19.262075,-9.94884 -11.212061,-7.50407 -14.736994,-11.64569 -17.86048,-20.98516 -1.101695,-3.29416 -1.183677,-7.44181 -1.3783,-69.73135 -0.22194,-71.03231 0.02256,-79.146875 2.657499,-88.199003 C 70.488669,76.790664 74.479733,70.570463 87.116478,57.80428 92.39641,52.470266 96.590996,47.989015 96.437779,47.845945 96.284563,47.702874 90.94855,44.98263 84.579973,41.800958 78.211396,38.619286 71.991981,35.130395 70.75905,34.047867 69.526119,32.96534 67.644235,30.332364 66.577086,28.196811 62.54798,20.133854 64.716496,10.31026 71.753318,4.7479725 77.679546,0.06355889 72.779516,0.31834702 156.9315,0.31894021 243.01441,0.31954697 246.60512,0.4864242 267.78109,5.4706352 337.38497,21.853371 392.5781,76.262394 409.84107,145.51244 c 4.33959,17.40814 5.16472,24.812 5.50021,49.35323 0.22909,16.75823 0.0744,23.73868 -0.68447,30.88557 -0.7243,6.82137 -28.52667,163.12218 -30.66923,172.41791 l -0.33025,1.43284 H 224.14707 64.636816 Z"
     id="path306"
     sodipodi:nodetypes="ssssssssssssssssssssssssscccs" />
  <path
     style="fill:#ffffff;stroke-width:0.636816;stroke:#000000;stroke-opacity:1"
     d="m 32.657018,510.78911 c -4.22925,-1.14127 -9.590475,-4.89663 -12.009084,-8.41197 -2.353086,-3.42009 -4.409128,-9.44733 -4.409128,-12.92526 0,-2.99059 1.629883,-8.60896 3.342379,-11.52153 0.720773,-1.22587 11.075937,-12.04378 23.011476,-24.0398 L 64.293642,432.0796 H 223.84848 383.40332 l 22.6604,22.76617 c 25.80378,25.92421 25.06066,24.89033 25.06066,34.86567 0,4.9736 -0.23326,6.20633 -1.76428,9.32395 -2.14888,4.37576 -6.34574,8.3679 -11.17891,10.6336 l -3.61403,1.69419 -189.45273,0.11838 c -151.704542,0.0948 -190.051415,-0.0432 -192.457412,-0.69245 z"
     id="path308"
     sodipodi:nodetypes="ssssscccsssscss" />
  <path
     style="fill:#ffffff;stroke-width:0.636816;stroke:#000000;stroke-opacity:1"
     d="m 64.999453,394.98507 c 1.148749,-12.06045 6.693375,-25.16776 14.321643,-33.85587 4.312316,-4.91146 14.428979,-12.32392 50.907764,-37.30003 87.66142,-60.01959 91.23261,-62.51565 93.22155,-65.15666 5.20524,-6.91176 4.63993,-17.37409 -1.29547,-23.97568 -3.89499,-4.33216 -7.05821,-5.88926 -12.71455,-6.25874 -7.725,-0.50461 -8.11447,-0.27992 -37.84221,21.83075 -36.29155,26.99264 -40.57816,29.22984 -56.01609,29.23508 -11.19688,0.004 -17.652505,-2.12225 -29.293533,-9.64735 -11.810788,-7.63484 -16.509736,-12.58321 -19.810059,-20.86155 l -1.523274,-3.82089 -0.192203,-68.1393 c -0.12325,-43.6941 0.04563,-70.76659 0.470732,-75.46269 0.765315,-8.454369 2.387817,-14.830972 5.47242,-21.507191 3.141775,-6.799959 6.721556,-11.49354 16.824702,-22.05949 4.920705,-5.146111 8.946737,-9.605032 8.946737,-9.908713 0,-0.303681 -4.750943,-3.007104 -10.557651,-6.007605 C 72.308593,35.055737 70.476233,33.784852 68.0076,29.665514 65.034899,24.705054 64.299795,20.450954 65.563181,15.519477 67.556727,7.7379063 72.921096,2.6225316 80.285139,1.4808566 86.566709,0.50700138 225.73991,0.53606827 239.5606,1.5141219 c 12.02124,0.8507119 18.31475,1.8642488 30.13094,4.8524351 24.07092,6.087272 45.58297,16.021625 65.27363,30.143624 42.49245,30.475282 70.32627,75.935159 78.43617,128.106739 0.95855,6.16639 1.14056,11.59922 1.15211,34.38806 0.0136,26.89581 0.003,27.12625 -1.76921,36.93532 -0.98061,5.42885 -4.50742,25.34527 -7.83736,44.2587 -6.60561,37.51852 -15.32953,86.17488 -19.09643,106.50747 l -2.38909,12.89552 H 224.01053 64.559695 Z"
     id="path310"
     sodipodi:nodetypes="ssssssscsscsssssssssssssscsscccs" />
  <g
     id="g481"
     clip-path="url(#clipPath483)"
     style="fill:#ffffff;stroke:#000000;stroke-opacity:1">
    <g
       inkscape:label="Clip"
       id="g479"
       style="fill:#ffffff;stroke:#000000;stroke-opacity:1">
      <path
         style="fill:#ffffff;stroke-width:0.636816;stroke:#000000;stroke-opacity:1"
         d="m 64.962361,395.30348 c 0.967691,-9.74339 3.994227,-18.70408 9.087505,-26.90547 6.486489,-10.44479 7.827872,-11.48506 67.323264,-52.21051 52.88697,-36.20189 74.08019,-50.8315 78.18249,-53.96913 4.54823,-3.47871 6.86752,-7.694 7.31747,-13.29943 0.48762,-6.07474 -1.17218,-10.54174 -5.55361,-14.94633 -4.42524,-4.44861 -8.30883,-5.92554 -14.64055,-5.56776 -5.37173,0.30352 -7.266,1.41171 -25.82321,15.10698 -36.62634,27.03033 -41.28097,30.21953 -48.16167,32.99877 -11.76466,4.75195 -25.37652,4.24286 -37.333928,-1.3963 -6.235441,-2.94067 -17.499479,-10.67958 -21.801667,-14.97875 -4.572021,-4.56882 -7.637578,-10.74423 -8.340311,-16.80112 -0.771923,-6.65326 -0.713569,-134.3068 0.06515,-142.51857 1.093987,-11.536363 4.477987,-21.012171 10.573313,-29.607187 1.535058,-2.164588 6.802762,-8.151343 11.70601,-13.303908 4.903248,-5.152564 8.914996,-9.591469 8.914996,-9.864232 0,-0.272764 -4.750943,-2.950891 -10.557651,-5.951392 C 72.308593,35.055737 70.476233,33.784852 68.0076,29.665514 64.145036,23.220166 63.990204,16.298069 67.569283,10.069555 69.249604,7.1453644 73.477655,3.3777519 76.438347,2.1663402 80.878866,0.34943414 214.67244,-0.07422395 240.59962,1.6465226 c 38.05985,2.5259732 77.20105,19.0720974 108.3755,45.8134884 30.12632,25.842297 51.63797,61.343379 61.15067,100.918099 4.10097,17.06083 4.41246,20.62246 4.42766,50.62687 l 0.0137,27.06467 -2.10226,11.7811 c -1.15625,6.4796 -5.80522,32.70049 -10.33105,58.26865 -4.52583,25.56816 -10.40229,58.3801 -13.05881,72.91543 -2.65652,14.53532 -4.9943,27.3592 -5.19507,28.49751 l -0.365,2.06965 H 224.02519 64.535443 Z"
         id="path312"
         sodipodi:nodetypes="sssssssssssssssssssssssscsssscccs" />
    </g>
  </g>
  <path
     style="fill:#ffffff;stroke-width:0.636816;stroke:#000000;stroke-opacity:1"
     d="m 34.056572,510.46902 c -5.826441,-0.82088 -12.33337,-6.00506 -15.194202,-12.10549 -1.390035,-2.9641 -1.66834,-4.46052 -1.66834,-8.9705 0,-9.18411 0.0061,-9.19248 25.488546,-34.94949 L 64.80812,432.0796 h 159.01513 159.01513 l 22.26278,22.44776 c 25.68625,25.89967 25.70481,25.92485 25.70481,34.889 0,4.86744 -0.22581,5.95648 -1.9509,9.40869 -2.25109,4.50482 -6.22624,8.29263 -11.14464,10.6194 l -3.3828,1.60033 -188.69615,-0.0851 c -103.78289,-0.0468 -189.991594,-0.2676 -191.574908,-0.49067 z"
     id="path314"
     sodipodi:nodetypes="sssscccsssscsss" />
  <path
     style="fill:#ffffff;stroke-width:0.636816;stroke:#000000;stroke-opacity:1"
     d="m 33.751244,510.44642 c -5.869871,-1.0115 -12.041644,-6.00868 -14.868786,-12.03901 -1.411802,-3.01139 -1.688428,-4.48828 -1.688428,-9.01438 0,-9.18411 0.0061,-9.19248 25.488546,-34.94949 L 64.80812,432.0796 h 159.01513 159.01513 l 22.26278,22.44776 c 25.68625,25.89967 25.70481,25.92485 25.70481,34.889 0,4.86744 -0.22581,5.95648 -1.9509,9.40869 -2.2039,4.4104 -6.09573,8.17145 -10.96795,10.59937 l -3.25162,1.62036 -189.16849,-0.0797 C 121.42433,510.92123 35.152239,510.68783 33.751244,510.44642 Z"
     id="path316"
     sodipodi:nodetypes="sssscccsssscss" />
  <path
     style="fill:#ffffff;stroke-width:1.27363;stroke:#000000;stroke-opacity:1"
     d="m 65.903715,391.94475 c 0.709143,-7.82055 6.092461,-20.95547 11.504032,-28.06904 4.880173,-6.41504 15.666838,-14.29189 80.522603,-58.80082 32.92338,-22.5945 61.22412,-42.30643 62.89051,-43.80427 13.05529,-11.73476 4.6539,-32.68334 -13.08881,-32.63657 -7.11235,0.0187 -2.89743,-2.64245 -51.07533,32.24759 -22.21318,16.08659 -26.64056,18.04373 -40.81798,18.04373 -10.74238,0 -12.16849,-0.32081 -21.01493,-4.72743 C 81.531448,267.5767 71.644708,259.4203 68.142969,252.18668 65.299464,246.31278 65.25387,245.4206 64.638724,183.61518 63.881966,107.5818 64.75409,93.619195 71.088723,80.351375 74.044188,74.161184 78.66188,67.82201 85.77914,60.184347 91.488176,54.057876 96.147306,48.6131 96.132763,48.084844 96.118218,47.556588 90.530161,44.194894 83.714853,40.614411 69.340989,33.062978 65.59204,28.824778 65.59204,20.126512 c 0,-6.956974 2.536895,-12.0323105 7.940981,-15.8867976 l 4.158521,-2.9660826 83.422888,0.030879 c 93.79845,0.034719 94.28123,0.072314 122.65491,9.5514642 45.12811,15.076514 82.59463,45.840011 106.59129,87.521385 7.65275,13.29253 14.51758,30.8869 19.35286,49.60078 l 4.21686,16.32037 -0.0299,33.75124 -0.0299,33.75124 -12.97925,71.32339 c -7.1386,39.22786 -14.01072,76.76816 -15.27137,83.42288 l -2.29211,12.09951 -159.04524,0.32337 -159.045257,0.32339 0.666363,-7.34878 z"
     id="path625"
     sodipodi:nodetypes="sssssssssssssssscsssscccssccccs" />
  <path
     style="fill:url(#linearGradient1435);fill-opacity:1;stroke-width:1.27363;stroke:#030303;stroke-opacity:1"
     d="m 45.617915,510.16679 c -16.656643,-0.76653 -19.419502,-1.7929 -25.020545,-9.29489 -3.520153,-4.71486 -4.254413,-14.71334 -1.482211,-20.18337 1.212576,-2.39262 12.001218,-14.23679 23.974761,-26.32037 L 64.859998,432.39801 H 224.32067 383.78136 l 22.42195,23.19708 c 17.71834,18.33087 22.70583,24.25134 23.77521,28.2227 2.69625,10.01313 -1.98714,20.09888 -11.6135,25.00989 -4.89832,2.49893 -7.51052,2.53203 -181.10035,2.29433 -96.87169,-0.13264 -183.112728,-0.56249 -191.646755,-0.95522 z"
     id="path627"
     sodipodi:nodetypes="sssscccsssss" />
  <path
     style="fill:#ffffff;stroke-width:1.27363;stroke:#000000;stroke-opacity:1"
     d="m 66.378546,393.55224 c 1.776914,-12.65679 8.057559,-25.73475 15.980313,-33.27519 7.242359,-6.89289 15.80018,-13.05907 70.476961,-50.78087 79.82837,-55.07401 75.28119,-51.15377 74.21715,-63.98468 -0.48193,-5.81141 -1.28094,-7.59751 -5.11303,-11.4296 -3.6973,-3.69731 -5.73579,-4.65656 -10.96286,-5.15882 -3.53157,-0.33934 -7.78828,-0.27383 -9.45936,0.14559 -1.67107,0.41941 -15.88722,10.00171 -31.59145,21.29398 -35.88584,25.80407 -38.03325,26.93786 -52.40621,27.66919 -10.71772,0.54536 -11.47178,0.39707 -21.007069,-4.13122 C 83.649959,267.792 73.946209,260.21189 69.663662,252.92722 l -3.434806,-5.84264 -0.395291,-68.77612 c -0.248754,-43.28043 0.102473,-72.55326 0.947456,-78.965176 1.81455,-13.769196 7.58326,-25.117597 19.746393,-38.845772 5.275434,-5.954228 9.600718,-11.489453 9.611744,-12.300499 0.01103,-0.811046 -4.912062,-4.243056 -10.940193,-7.62669 C 71.08015,32.645331 66.865672,27.978795 66.865672,20.270544 c 0,-6.985677 2.497566,-12.1498219 7.650737,-15.8192033 L 78.384687,1.6968843 164.64508,2.30662 c 57.2707,0.4048206 88.82858,1.1021884 93.90218,2.0750554 20.81466,3.991229 51.41264,16.8439206 70.68657,29.6919236 25.69394,17.127579 49.03396,43.035716 63.08404,70.025211 7.32753,14.0758 11.17914,24.30542 16.6337,44.17799 l 4.34196,15.8191 -0.018,33.85255 -0.018,33.85254 -15.07768,82.49197 c -8.29273,45.37058 -15.31157,82.72586 -15.59744,83.01173 -0.28587,0.28587 -71.70964,0.70479 -158.71949,0.93092 l -158.199695,0.41116 z"
     id="path629"
     sodipodi:nodetypes="csssssssssscssssssscssssscccssscc" />
  <path
     style="fill:url(#linearGradient1363);fill-opacity:1;stroke:url(#linearGradient1332);stroke-width:0;stroke-dasharray:none;stroke-opacity:1"
     d="m 66.378546,393.55224 c 1.840169,-13.10735 8.143527,-25.95093 16.593983,-33.81148 7.389067,-6.87325 23.609221,-18.52213 76.231451,-54.74733 69.1342,-47.59207 68.14265,-46.76259 68.13454,-56.99795 -0.009,-11.48344 -8.07075,-19.36513 -19.81616,-19.3738 -7.18869,-0.005 -8.56582,0.8294 -47.04475,28.51533 -25.81158,18.57167 -29.14261,20.19189 -42.95755,20.89483 -10.71772,0.54536 -11.47178,0.39707 -21.007069,-4.13122 C 83.649959,267.792 73.946209,260.21189 69.663662,252.92722 l -3.434806,-5.84264 -0.395291,-68.77612 C 65.584811,135.02803 65.936038,105.7552 66.781021,99.343284 68.589228,85.622217 74.366662,74.241434 86.501008,60.497512 91.757927,54.543284 96.081577,49.07366 96.109122,48.342794 96.136667,47.611929 91.060457,44.039958 84.828655,40.405081 70.602031,32.106995 66.865672,27.907837 66.865672,20.217141 c 0,-6.934862 2.508574,-12.1042568 7.650737,-15.7658003 L 78.384687,1.6968843 164.64508,2.30662 c 56.75467,0.401173 88.81734,1.1053639 93.73564,2.0587121 23.50894,4.5568917 58.67836,20.1343789 77.81225,34.4651479 37.97989,28.445911 61.55948,64.62043 73.92896,113.41778 2.98451,11.77377 3.17089,14.48928 3.15959,46.0323 l -0.0115,33.52043 -15.07441,82.48277 c -8.29094,45.36553 -15.31245,82.72081 -15.60338,83.01173 -0.29093,0.29093 -71.71884,0.71399 -158.72869,0.94012 l -158.200265,0.41116 z"
     id="path631"
     sodipodi:nodetypes="sssccsssscssssssscssssccssscs" />
</svg>
